<svg width="152" height="152" viewBox="0 0 152 152" fill="none" xmlns="http://www.w3.org/2000/svg">
<rect width="152" height="152" rx="36" fill="#4B3F59"/>
<g filter="url(#filter0_d)">
<path d="M104.377 55.6807C107.1 55.6807 109.702 55.9409 112.185 56.4614C114.707 56.9419 117.049 57.6025 119.211 58.4434C121.374 59.2441 123.335 60.165 125.097 61.2061C126.859 62.2471 128.36 63.2881 129.602 64.3291L145.217 53.5786L127.259 88.0522L125.878 69.9746C124.717 69.1738 123.456 68.4731 122.094 67.8726C120.773 67.2319 119.432 66.7114 118.07 66.311C116.749 65.8706 115.468 65.5303 114.227 65.29C112.985 65.0098 111.884 64.7896 110.923 64.6294C109.962 64.4692 109.182 64.3691 108.581 64.3291C108.021 64.249 107.72 64.209 107.68 64.209C104.958 64.209 102.675 64.5093 100.833 65.1099C98.9917 65.7104 97.4902 66.4912 96.3291 67.4521C95.208 68.4131 94.3872 69.5142 93.8667 70.7554C93.3862 71.9565 93.146 73.1777 93.146 74.4189C93.146 76.9414 93.6665 79.0835 94.7075 80.8452C95.7485 82.5669 97.3301 84.1084 99.4521 85.4697C101.574 86.8311 104.277 88.1123 107.56 89.3135C110.843 90.4746 114.707 91.7358 119.151 93.0972C121.834 93.938 124.356 95.0791 126.719 96.5205C129.121 97.9219 131.203 99.5835 132.965 101.505C134.727 103.387 136.108 105.509 137.109 107.872C138.15 110.194 138.67 112.696 138.67 115.379C138.67 118.502 138.23 121.285 137.349 123.727C136.468 126.129 135.287 128.251 133.806 130.093C132.364 131.895 130.683 133.437 128.761 134.718C126.839 135.959 124.837 136.96 122.755 137.721C120.713 138.521 118.631 139.082 116.509 139.402C114.427 139.763 112.465 139.943 110.623 139.943C105.218 139.943 100.313 139.022 95.9087 137.18C91.5044 135.338 87.4004 132.816 83.5967 129.613L67.9814 140.303L85.3984 109.433C85.8789 112.316 86.7197 115.099 87.9209 117.781C89.1621 120.424 90.6836 122.786 92.4854 124.868C94.2871 126.95 96.3691 128.612 98.7314 129.853C101.094 131.094 103.676 131.715 106.479 131.715C108.721 131.715 110.763 131.375 112.605 130.694C114.487 130.013 116.088 129.112 117.41 127.991C118.731 126.83 119.752 125.509 120.473 124.027C121.233 122.506 121.614 120.924 121.614 119.283C121.614 117 120.973 115.039 119.692 113.397C118.411 111.715 116.729 110.234 114.647 108.953C112.565 107.631 110.183 106.43 107.5 105.349C104.857 104.228 102.135 103.087 99.332 101.926C96.5293 100.765 93.7866 99.4834 91.104 98.082C88.4614 96.6807 86.0991 95.0391 84.0171 93.1572C81.9351 91.2354 80.2534 88.9932 78.9722 86.4307C77.6909 83.8682 77.0503 80.8452 77.0503 77.3618C77.0503 74.6792 77.5708 72.0566 78.6118 69.4941C79.6929 66.8916 81.3345 64.5693 83.5366 62.5273C85.7788 60.4854 88.6216 58.8438 92.0649 57.6025C95.5083 56.3213 99.6123 55.6807 104.377 55.6807Z" fill="#ABAAE2" fill-opacity="0.8"/>
</g>
<g filter="url(#filter1_d)">
<path d="M84.6919 14.5996L71.8994 24.3291C71.9795 26.7314 72.0195 29.0137 72.0195 31.1758C72.0195 33.2979 72.0195 35.3599 72.0195 37.3618C72.0195 44.689 71.8794 50.835 71.5991 55.7998C71.3188 60.7246 71.0186 64.7485 70.6982 67.8716C70.2979 71.5151 69.8774 74.418 69.437 76.5801C68.6763 79.4229 67.5151 82.2456 65.9536 85.0483C64.3921 87.811 62.3901 90.3135 59.9478 92.5557C57.5454 94.7979 54.6426 96.5996 51.2393 97.9609C47.876 99.3623 43.9722 100.063 39.5278 100.063C34.6831 100.063 30.479 99.3223 26.9155 97.8408C23.3521 96.3994 20.3892 94.4976 18.0269 92.1353C15.7046 89.7329 13.9629 87.0503 12.8018 84.0874C11.6807 81.0845 11.1201 78.0815 11.1201 75.0786C11.1201 72.7964 11.4805 70.5942 12.2012 68.4722C12.9619 66.3501 14.0229 64.4683 15.3843 62.8267C16.7456 61.1851 18.3672 59.8838 20.249 58.9229C22.1309 57.9219 24.2129 57.4214 26.4951 57.4214C28.417 57.4214 30.459 57.7817 32.6211 58.5024C31.1797 59.3433 29.9385 60.2842 28.8975 61.3252C27.8965 62.3662 27.0356 63.4473 26.3149 64.5684C25.6343 65.6895 25.0938 66.8105 24.6934 67.9316C24.293 69.0127 23.9927 70.0537 23.7925 71.0547C23.5923 72.0156 23.4521 72.8765 23.3721 73.6372C23.332 74.3979 23.312 74.9785 23.312 75.3789C23.312 78.1016 23.6724 80.584 24.3931 82.8262C25.1538 85.0283 26.1948 86.9302 27.5161 88.5317C28.8774 90.0933 30.499 91.3145 32.3809 92.1953C34.2627 93.0361 36.3247 93.4565 38.5669 93.4565C41.3696 93.4565 43.8921 92.876 46.1343 91.7148C48.4165 90.5137 50.3584 88.772 51.96 86.4897C53.5615 84.2075 54.8027 81.3848 55.6836 78.0215C56.5645 74.6182 57.0049 70.6943 57.0049 66.25C57.0049 63.3271 56.9048 60.2441 56.7046 57.001C56.5444 53.7178 56.3042 50.4146 55.9839 47.0913C55.7036 43.728 55.3633 40.3848 54.9629 37.0615C54.5625 33.7383 54.1421 30.5552 53.7017 27.5122L37.666 18.0229L84.6919 14.5996Z" fill="#ABAAE2" fill-opacity="0.8"/>
</g>
<defs>
<filter id="filter0_d" x="63.9814" y="53.5786" width="85.2354" height="94.7246" filterUnits="userSpaceOnUse" color-interpolation-filters="sRGB">
<feFlood flood-opacity="0" result="BackgroundImageFix"/>
<feColorMatrix in="SourceAlpha" type="matrix" values="0 0 0 0 0 0 0 0 0 0 0 0 0 0 0 0 0 0 127 0"/>
<feOffset dy="4"/>
<feGaussianBlur stdDeviation="2"/>
<feColorMatrix type="matrix" values="0 0 0 0 0 0 0 0 0 0 0 0 0 0 0 0 0 0 0.25 0"/>
<feBlend mode="normal" in2="BackgroundImageFix" result="effect1_dropShadow"/>
<feBlend mode="normal" in="SourceGraphic" in2="effect1_dropShadow" result="shape"/>
</filter>
<filter id="filter1_d" x="7.12012" y="14.5996" width="81.5718" height="93.4634" filterUnits="userSpaceOnUse" color-interpolation-filters="sRGB">
<feFlood flood-opacity="0" result="BackgroundImageFix"/>
<feColorMatrix in="SourceAlpha" type="matrix" values="0 0 0 0 0 0 0 0 0 0 0 0 0 0 0 0 0 0 127 0"/>
<feOffset dy="4"/>
<feGaussianBlur stdDeviation="2"/>
<feColorMatrix type="matrix" values="0 0 0 0 0 0 0 0 0 0 0 0 0 0 0 0 0 0 0.25 0"/>
<feBlend mode="normal" in2="BackgroundImageFix" result="effect1_dropShadow"/>
<feBlend mode="normal" in="SourceGraphic" in2="effect1_dropShadow" result="shape"/>
</filter>
</defs>
</svg>
